<svg width="16" height="16" viewBox="0 0 16 16" fill="none" xmlns="http://www.w3.org/2000/svg">
<path d="M5.62219 8.28941L9.78859 12.38C9.84686 12.4373 9.92112 12.4763 10.002 12.4921C10.0829 12.5079 10.1667 12.4998 10.2428 12.4688C10.319 12.4379 10.3841 12.3854 10.4299 12.318C10.4757 12.2507 10.5001 12.1716 10.5 12.0906V3.90938C10.5001 3.82843 10.4757 3.74928 10.4299 3.68195C10.3841 3.61462 10.319 3.56214 10.2428 3.53116C10.1667 3.50017 10.0829 3.49207 10.002 3.50788C9.92112 3.52369 9.84686 3.5627 9.78859 3.61997L5.62219 7.71059C5.58346 7.74858 5.55273 7.79369 5.53176 7.84335C5.51079 7.89301 5.5 7.94624 5.5 8C5.5 8.05376 5.51079 8.10699 5.53176 8.15665C5.55273 8.20631 5.58346 8.25142 5.62219 8.28941Z" fill="#4D4D57"/>
</svg>
