<svg width="16" height="16" viewBox="0 0 16 16" fill="none" xmlns="http://www.w3.org/2000/svg">
<path opacity="0.13" d="M8 3.5C3 3.5 1 8 1 8C1 8 3 12.5 8 12.5C13 12.5 15 8 15 8C15 8 13 3.5 8 3.5ZM8 10.5C7.50555 10.5 7.0222 10.3534 6.61107 10.0787C6.19995 9.80397 5.87952 9.41352 5.6903 8.95671C5.50108 8.49989 5.45157 7.99723 5.54804 7.51227C5.6445 7.02732 5.8826 6.58186 6.23223 6.23223C6.58186 5.8826 7.02732 5.6445 7.51227 5.54804C7.99723 5.45157 8.49989 5.50108 8.95671 5.6903C9.41352 5.87952 9.80397 6.19995 10.0787 6.61107C10.3534 7.0222 10.5 7.50555 10.5 8C10.5 8.66304 10.2366 9.29893 9.76777 9.76777C9.29893 10.2366 8.66304 10.5 8 10.5Z" fill="#4D4D57"/>
<path d="M3.36999 2.16373C3.32608 2.11423 3.27279 2.07395 3.21319 2.0452C3.1536 2.01645 3.08889 1.99982 3.02282 1.99627C2.95675 1.99271 2.89063 2.00231 2.8283 2.02449C2.76597 2.04668 2.70865 2.08102 2.65969 2.12552C2.61072 2.17002 2.57108 2.22379 2.54305 2.28373C2.51502 2.34366 2.49916 2.40856 2.4964 2.47467C2.49364 2.54078 2.50402 2.60678 2.52696 2.66884C2.54989 2.73091 2.58491 2.7878 2.62999 2.83623L3.83249 4.15936C1.56249 5.55248 0.586244 7.69998 0.543119 7.79748C0.51469 7.86143 0.5 7.93063 0.5 8.00061C0.5 8.07059 0.51469 8.13979 0.543119 8.20373C0.564994 8.25311 1.09437 9.42686 2.27124 10.6037C3.83937 12.1712 5.81999 13 7.99999 13C9.12038 13.0064 10.2294 12.7757 11.2544 12.3231L12.6294 13.8362C12.6733 13.8857 12.7266 13.926 12.7862 13.9548C12.8458 13.9835 12.9105 14.0001 12.9765 14.0037C13.0426 14.0072 13.1087 13.9977 13.1711 13.9755C13.2334 13.9533 13.2907 13.9189 13.3397 13.8744C13.3886 13.8299 13.4283 13.7762 13.4563 13.7162C13.4843 13.6563 13.5002 13.5914 13.503 13.5253C13.5057 13.4592 13.4953 13.3932 13.4724 13.3311C13.4495 13.2691 13.4145 13.2122 13.3694 13.1637L3.36999 2.16373ZM6.32812 6.90373L8.93249 9.76936C8.5403 9.97568 8.09069 10.0459 7.65426 9.96901C7.21783 9.89211 6.81931 9.67243 6.52126 9.34449C6.22321 9.01654 6.04252 8.59889 6.00756 8.15712C5.9726 7.71534 6.08536 7.27447 6.32812 6.90373ZM7.99999 12C6.07624 12 4.39562 11.3006 3.00437 9.92186C2.43332 9.35434 1.94763 8.70697 1.56249 7.99998C1.85562 7.45061 2.79124 5.91311 4.52187 4.91373L5.64687 6.14811C5.21133 6.70592 4.98702 7.39975 5.01358 8.10696C5.04014 8.81417 5.31586 9.48922 5.79202 10.0128C6.26817 10.5364 6.91409 10.8748 7.61561 10.9681C8.31713 11.0615 9.02908 10.9039 9.62562 10.5231L10.5462 11.5356C9.73374 11.8473 8.87023 12.0048 7.99999 12ZM8.37499 6.03561C8.24471 6.01074 8.12963 5.93514 8.05509 5.82543C7.98054 5.71572 7.95263 5.58089 7.97749 5.45061C8.00236 5.32032 8.07796 5.20524 8.18767 5.1307C8.29738 5.05615 8.43221 5.02824 8.56249 5.05311C9.19975 5.17665 9.77999 5.50289 10.2167 5.98316C10.6534 6.46343 10.9231 7.07201 10.9856 7.71811C10.998 7.85013 10.9574 7.98166 10.8727 8.08375C10.7881 8.18584 10.6664 8.25013 10.5344 8.26248C10.5188 8.2634 10.5031 8.2634 10.4875 8.26248C10.3625 8.26302 10.2419 8.21673 10.1493 8.13275C10.0568 8.04876 9.99905 7.93317 9.98749 7.80873C9.94541 7.37898 9.76575 6.97428 9.47522 6.65482C9.1847 6.33536 8.79883 6.11819 8.37499 6.03561ZM15.455 8.20373C15.4287 8.26248 14.7956 9.66436 13.37 10.9412C13.3213 10.9862 13.2641 11.0211 13.2018 11.0438C13.1395 11.0665 13.0732 11.0766 13.007 11.0735C12.9407 11.0703 12.8758 11.054 12.8159 11.0256C12.756 10.9971 12.7023 10.9569 12.6581 10.9075C12.6138 10.8581 12.5799 10.8004 12.5582 10.7377C12.5365 10.675 12.5274 10.6086 12.5316 10.5424C12.5358 10.4762 12.5531 10.4115 12.5826 10.3521C12.612 10.2927 12.653 10.2397 12.7031 10.1962C13.4025 9.56787 13.9901 8.82521 14.4406 7.99998C14.0546 7.29234 13.5679 6.64453 12.9956 6.07686C11.6044 4.69936 9.92374 3.99998 7.99999 3.99998C7.59465 3.99949 7.18996 4.03231 6.78999 4.09811C6.72495 4.10961 6.65828 4.10811 6.59382 4.0937C6.52936 4.07928 6.46839 4.05224 6.41444 4.01413C6.3605 3.97602 6.31463 3.9276 6.2795 3.87167C6.24437 3.81574 6.22067 3.75339 6.20978 3.68825C6.19888 3.6231 6.20099 3.55644 6.216 3.49212C6.23101 3.4278 6.25862 3.36709 6.29723 3.31349C6.33583 3.2599 6.38468 3.21449 6.44094 3.17988C6.49719 3.14527 6.55975 3.12215 6.62499 3.11186C7.07947 3.03681 7.53936 2.9994 7.99999 2.99998C10.18 2.99998 12.1606 3.82873 13.7287 5.39686C14.9056 6.57373 15.435 7.74811 15.4569 7.79748C15.4853 7.86143 15.5 7.93063 15.5 8.00061C15.5 8.07059 15.4853 8.13979 15.4569 8.20373H15.455Z" fill="#4D4D57"/>
</svg>
