<svg width="16" height="16" viewBox="0 0 16 16" xmlns="http://www.w3.org/2000/svg">
<path opacity="0.13" d="M13 8C13 8.98891 12.7068 9.95561 12.1573 10.7779C11.6079 11.6001 10.827 12.241 9.91342 12.6194C8.99979 12.9978 7.99446 13.0969 7.02455 12.9039C6.05465 12.711 5.16373 12.2348 4.46447 11.5355C3.76521 10.8363 3.289 9.94536 3.09608 8.97545C2.90315 8.00555 3.00217 7.00021 3.3806 6.08658C3.75904 5.17295 4.39991 4.39206 5.22215 3.84265C6.0444 3.29324 7.0111 3 8 3C9.32609 3 10.5979 3.52678 11.5355 4.46447C12.4732 5.40215 13 6.67392 13 8Z" />
<path d="M14.5 7.5H13.4769C13.4207 6.87498 13.257 6.26436 12.9931 5.695L13.8794 5.18313C13.9942 5.11682 14.0781 5.0076 14.1124 4.87949C14.1468 4.75138 14.1288 4.61487 14.0625 4.5C13.9962 4.38513 13.887 4.3013 13.7589 4.26696C13.6308 4.23262 13.4942 4.25057 13.3794 4.31687L12.4919 4.82937C12.1293 4.31744 11.6826 3.87069 11.1706 3.50813L11.6831 2.62063C11.7494 2.50575 11.7674 2.36925 11.733 2.24114C11.6987 2.11303 11.6149 2.0038 11.5 1.9375C11.3851 1.8712 11.2486 1.85324 11.1205 1.88758C10.9924 1.92193 10.8832 2.00575 10.8169 2.12063L10.305 3.00688C9.73564 2.74299 9.12502 2.57934 8.5 2.52312V1.5C8.5 1.36739 8.44732 1.24021 8.35355 1.14645C8.25979 1.05268 8.13261 1 8 1C7.86739 1 7.74021 1.05268 7.64645 1.14645C7.55268 1.24021 7.5 1.36739 7.5 1.5V2.52312C6.87498 2.57934 6.26436 2.74299 5.695 3.00688L5.18313 2.12063C5.15029 2.06375 5.10658 2.01389 5.05448 1.97391C5.00239 1.93392 4.94292 1.90459 4.87949 1.88758C4.81605 1.87058 4.74989 1.86623 4.68478 1.8748C4.61967 1.88336 4.55688 1.90467 4.5 1.9375C4.38513 2.0038 4.3013 2.11303 4.26696 2.24114C4.23262 2.36925 4.25057 2.50575 4.31687 2.62063L4.82937 3.50813C4.31744 3.87069 3.87069 4.31744 3.50813 4.82937L2.62063 4.31687C2.50575 4.25057 2.36925 4.23262 2.24114 4.26696C2.11303 4.3013 2.0038 4.38513 1.9375 4.5C1.8712 4.61487 1.85324 4.75138 1.88758 4.87949C1.92193 5.0076 2.00575 5.11682 2.12063 5.18313L3.00688 5.695C2.74299 6.26436 2.57934 6.87498 2.52312 7.5H1.5C1.36739 7.5 1.24021 7.55268 1.14645 7.64645C1.05268 7.74021 1 7.86739 1 8C1 8.13261 1.05268 8.25979 1.14645 8.35355C1.24021 8.44732 1.36739 8.5 1.5 8.5H2.52312C2.57934 9.12502 2.74299 9.73564 3.00688 10.305L2.12063 10.8169C2.02525 10.8719 1.9507 10.9568 1.90854 11.0585C1.86638 11.1603 1.85897 11.273 1.88746 11.3794C1.91596 11.4857 1.97876 11.5797 2.06612 11.6467C2.15348 11.7137 2.26052 11.75 2.37063 11.75C2.45841 11.7503 2.5447 11.7272 2.62063 11.6831L3.50813 11.1706C3.87069 11.6826 4.31744 12.1293 4.82937 12.4919L4.31687 13.3794C4.25057 13.4942 4.23262 13.6308 4.26696 13.7589C4.3013 13.887 4.38513 13.9962 4.5 14.0625C4.61487 14.1288 4.75138 14.1468 4.87949 14.1124C5.0076 14.0781 5.11682 13.9942 5.18313 13.8794L5.695 12.9931C6.26436 13.257 6.87498 13.4207 7.5 13.4769V14.5C7.5 14.6326 7.55268 14.7598 7.64645 14.8536C7.74021 14.9473 7.86739 15 8 15C8.13261 15 8.25979 14.9473 8.35355 14.8536C8.44732 14.7598 8.5 14.6326 8.5 14.5V13.4769C9.12502 13.4207 9.73564 13.257 10.305 12.9931L10.8169 13.8794C10.8832 13.9942 10.9924 14.0781 11.1205 14.1124C11.2486 14.1468 11.3851 14.1288 11.5 14.0625C11.6149 13.9962 11.6987 13.887 11.733 13.7589C11.7674 13.6308 11.7494 13.4942 11.6831 13.3794L11.1706 12.4919C11.6826 12.1293 12.1293 11.6826 12.4919 11.1706L13.3794 11.6831C13.4363 11.716 13.499 11.7373 13.5642 11.7459C13.6293 11.7544 13.6954 11.7501 13.7589 11.7331C13.8223 11.7161 13.8818 11.6867 13.9339 11.6467C13.986 11.6068 14.0297 11.5569 14.0625 11.5C14.1289 11.3852 14.1469 11.2488 14.1127 11.1206C14.0785 10.9925 13.9948 10.8833 13.88 10.8169L12.9937 10.305C13.2574 9.7356 13.4209 9.12498 13.4769 8.5H14.5C14.6326 8.5 14.7598 8.44732 14.8536 8.35355C14.9473 8.25979 15 8.13261 15 8C15 7.86739 14.9473 7.74021 14.8536 7.64645C14.7598 7.55268 14.6326 7.5 14.5 7.5ZM5.33187 11.6213C4.76393 11.2036 4.30218 10.6582 3.98394 10.0291C3.6657 9.40008 3.49988 8.70498 3.49988 8C3.49988 7.29502 3.6657 6.59992 3.98394 5.97086C4.30218 5.34179 4.76393 4.79641 5.33187 4.37875L7.4225 8L5.33187 11.6213ZM8 12.5C7.37967 12.5013 6.76584 12.3736 6.1975 12.125L8.28875 8.5H12.4712C12.3472 9.59946 11.8229 10.6148 10.9983 11.3525C10.1737 12.0902 9.10643 12.4987 8 12.5ZM8.28875 7.5L6.1975 3.87812C6.84354 3.59502 7.54713 3.46789 8.2514 3.50699C8.95566 3.54609 9.64085 3.75034 10.2516 4.10322C10.8623 4.45611 11.3815 4.94773 11.7671 5.53835C12.1526 6.12897 12.3939 6.80203 12.4712 7.50313L8.28875 7.5Z" />
</svg>
