<svg width="16" height="16" viewBox="0 0 16 16" fill="none" xmlns="http://www.w3.org/2000/svg">
<path opacity="0.13" d="M8.5 6.75C8.5 7.39279 8.30939 8.02114 7.95228 8.5556C7.59516 9.09006 7.08758 9.50662 6.49372 9.75261C5.89986 9.99859 5.2464 10.063 4.61596 9.93755C3.98552 9.81215 3.40642 9.50262 2.9519 9.0481C2.49738 8.59358 2.18785 8.01448 2.06245 7.38404C1.93705 6.75361 2.00141 6.10014 2.24739 5.50628C2.49338 4.91242 2.90994 4.40484 3.4444 4.04772C3.97886 3.69061 4.60721 3.5 5.25 3.5C6.11196 3.5 6.93861 3.84241 7.5481 4.4519C8.15759 5.0614 8.5 5.88805 8.5 6.75Z" fill="#4D4D57"/>
<path d="M7.32816 9.87C7.99828 9.42387 8.50705 8.77393 8.77922 8.01629C9.05139 7.25864 9.07252 6.43352 8.83947 5.66294C8.60643 4.89236 8.13159 4.21724 7.48517 3.7374C6.83876 3.25756 6.05508 2.99848 5.25003 2.99848C4.44498 2.99848 3.66131 3.25756 3.01489 3.7374C2.36847 4.21724 1.89363 4.89236 1.66059 5.66294C1.42754 6.43352 1.44867 7.25864 1.72084 8.01629C1.99301 8.77393 2.50178 9.42387 3.17191 9.87C1.95971 10.3168 0.924472 11.1435 0.220656 12.2269C0.183666 12.2819 0.157972 12.3436 0.145069 12.4086C0.132166 12.4736 0.132311 12.5405 0.145494 12.6055C0.158678 12.6704 0.184638 12.7321 0.221865 12.7869C0.259092 12.8417 0.306844 12.8886 0.362345 12.9248C0.417846 12.961 0.479989 12.9858 0.545161 12.9978C0.610334 13.0097 0.677236 13.0086 0.741979 12.9945C0.806721 12.9804 0.868014 12.9536 0.922292 12.9156C0.976571 12.8776 1.02275 12.8291 1.05816 12.7731C1.51215 12.0749 2.13338 11.5011 2.86543 11.1039C3.59748 10.7067 4.41716 10.4986 5.25003 10.4986C6.0829 10.4986 6.90258 10.7067 7.63463 11.1039C8.36668 11.5011 8.98791 12.0749 9.44191 12.7731C9.51524 12.8821 9.62852 12.9579 9.75727 12.984C9.88601 13.0102 10.0199 12.9846 10.1299 12.9128C10.2399 12.841 10.3173 12.7288 10.3453 12.6005C10.3733 12.4721 10.3496 12.3379 10.2794 12.2269C9.57559 11.1435 8.54035 10.3168 7.32816 9.87ZM2.50003 6.75C2.50003 6.2061 2.66132 5.67442 2.96349 5.22219C3.26566 4.76995 3.69515 4.41748 4.19765 4.20933C4.70015 4.00119 5.25308 3.94673 5.78653 4.05284C6.31998 4.15895 6.80998 4.42087 7.19457 4.80546C7.57917 5.19005 7.84108 5.68006 7.94719 6.2135C8.0533 6.74695 7.99884 7.29989 7.7907 7.80238C7.58256 8.30488 7.23008 8.73437 6.77785 9.03654C6.32561 9.33872 5.79393 9.5 5.25003 9.5C4.52094 9.49918 3.82195 9.20918 3.3064 8.69363C2.79085 8.17809 2.50086 7.47909 2.50003 6.75ZM15.6338 12.9188C15.5227 12.9912 15.3874 13.0165 15.2577 12.9892C15.1279 12.9619 15.0144 12.8842 14.9419 12.7731C14.4885 12.0745 13.8673 11.5004 13.1351 11.1034C12.4029 10.7063 11.583 10.4989 10.75 10.5C10.6174 10.5 10.4902 10.4473 10.3965 10.3536C10.3027 10.2598 10.25 10.1326 10.25 10C10.25 9.86739 10.3027 9.74022 10.3965 9.64645C10.4902 9.55268 10.6174 9.5 10.75 9.5C11.155 9.49962 11.5549 9.4098 11.9212 9.23695C12.2874 9.0641 12.6109 8.8125 12.8687 8.50011C13.1264 8.18773 13.312 7.82227 13.4121 7.42986C13.5122 7.03745 13.5244 6.62777 13.4478 6.2301C13.3713 5.83242 13.2078 5.45656 12.9692 5.12938C12.7305 4.80219 12.4225 4.53176 12.0672 4.3374C11.7119 4.14304 11.3181 4.02955 10.9139 4.00504C10.5096 3.98054 10.105 4.04561 9.72878 4.19563C9.66745 4.22214 9.60142 4.23609 9.53461 4.23666C9.46779 4.23722 9.40154 4.22439 9.33976 4.19892C9.27799 4.17344 9.22195 4.13585 9.17495 4.08835C9.12796 4.04085 9.09096 3.98441 9.06614 3.92237C9.04133 3.86033 9.0292 3.79395 9.03047 3.72714C9.03174 3.66033 9.0464 3.59446 9.07356 3.53341C9.10073 3.47236 9.13985 3.41738 9.18862 3.37171C9.2374 3.32603 9.29483 3.2906 9.35753 3.2675C10.2184 2.92416 11.176 2.9118 12.0455 3.23282C12.915 3.55384 13.6348 4.18548 14.066 5.00589C14.4973 5.8263 14.6094 6.77735 14.3808 7.67558C14.1523 8.5738 13.5991 9.35554 12.8282 9.87C14.0403 10.3168 15.0756 11.1435 15.7794 12.2269C15.8518 12.3379 15.8772 12.4732 15.8499 12.603C15.8226 12.7327 15.7448 12.8463 15.6338 12.9188Z" fill="#4D4D57"/>
</svg>
