<svg width="16" height="16" viewBox="0 0 16 16" fill="none" xmlns="http://www.w3.org/2000/svg">
<path opacity="0.13" d="M14 8C14.0009 8.84145 13.8243 9.67363 13.4819 10.4422C13.1394 11.2108 12.6387 11.8986 12.0125 12.4606C11.636 11.7201 11.0618 11.0982 10.3536 10.6639C9.64537 10.2296 8.83075 9.99979 7.99997 10C8.49442 10 8.97777 9.85337 9.38889 9.57867C9.80002 9.30397 10.1204 8.91352 10.3097 8.45671C10.4989 7.99989 10.5484 7.49722 10.4519 7.01227C10.3555 6.52732 10.1174 6.08186 9.76774 5.73223C9.4181 5.3826 8.97265 5.1445 8.4877 5.04803C8.00274 4.95157 7.50008 5.00108 7.04326 5.1903C6.58645 5.37952 6.196 5.69995 5.92129 6.11107C5.64659 6.52219 5.49997 7.00554 5.49997 7.5C5.49997 8.16304 5.76336 8.79892 6.2322 9.26776C6.70104 9.73661 7.33693 10 7.99997 10C7.16919 9.99979 6.35457 10.2296 5.64635 10.6639C4.93814 11.0982 4.36397 11.7201 3.98747 12.4606C2.84214 11.4304 2.13695 9.99914 2.01794 8.46325C1.89894 6.92737 2.37524 5.40455 3.34819 4.2102C4.32115 3.01585 5.71621 2.24149 7.24444 2.0475C8.77267 1.85351 10.317 2.25475 11.5575 3.16812C11.4952 3.34583 11.4844 3.5375 11.5263 3.72108C11.5681 3.90466 11.661 4.07269 11.7941 4.20584C11.9273 4.33898 12.0953 4.43183 12.2789 4.4737C12.4625 4.51556 12.6541 4.50475 12.8318 4.4425C13.5923 5.47257 14.0018 6.71964 14 8Z" fill="#4D4D57"/>
<path d="M14.2656 3.94187L13.9744 3.77375C14.0086 3.59285 14.0086 3.40715 13.9744 3.22625L14.2656 3.05813C14.3805 2.99182 14.4643 2.8826 14.4987 2.75449C14.533 2.62638 14.5151 2.48987 14.4488 2.375C14.3825 2.26013 14.2732 2.1763 14.1451 2.14196C14.017 2.10762 13.8805 2.12557 13.7656 2.19187L13.4738 2.36063C13.3341 2.24079 13.1735 2.14777 13 2.08625V1.75C13 1.61739 12.9473 1.49021 12.8536 1.39645C12.7598 1.30268 12.6326 1.25 12.5 1.25C12.3674 1.25 12.2402 1.30268 12.1465 1.39645C12.0527 1.49021 12 1.61739 12 1.75V2.08625C11.8266 2.14777 11.6659 2.24079 11.5263 2.36063L11.2344 2.19187C11.1775 2.15904 11.1147 2.13774 11.0496 2.12917C10.9845 2.12061 10.9183 2.12495 10.8549 2.14196C10.7915 2.15896 10.732 2.18829 10.6799 2.22828C10.6278 2.26827 10.5841 2.31812 10.5513 2.375C10.5184 2.43188 10.4971 2.49467 10.4886 2.55978C10.48 2.62489 10.4843 2.69105 10.5013 2.75449C10.5184 2.81792 10.5477 2.87739 10.5877 2.92948C10.6277 2.98158 10.6775 3.02529 10.7344 3.05813L11.0256 3.22625C10.9915 3.40715 10.9915 3.59285 11.0256 3.77375L10.7344 3.94187C10.639 3.99688 10.5645 4.08184 10.5223 4.18355C10.4801 4.28526 10.4727 4.39804 10.5012 4.5044C10.5297 4.61075 10.5925 4.70472 10.6799 4.77173C10.7672 4.83874 10.8743 4.87504 10.9844 4.875C11.0722 4.87527 11.1585 4.85219 11.2344 4.80813L11.5263 4.63938C11.6659 4.75921 11.8266 4.85223 12 4.91375V5.25C12 5.38261 12.0527 5.50979 12.1465 5.60355C12.2402 5.69732 12.3674 5.75 12.5 5.75C12.6326 5.75 12.7598 5.69732 12.8536 5.60355C12.9473 5.50979 13 5.38261 13 5.25V4.91375C13.1735 4.85223 13.3341 4.75921 13.4738 4.63938L13.7656 4.80813C13.8416 4.85219 13.9279 4.87527 14.0156 4.875C14.1257 4.87504 14.2328 4.83874 14.3201 4.77173C14.4075 4.70472 14.4703 4.61075 14.4988 4.5044C14.5273 4.39804 14.5199 4.28526 14.4777 4.18355C14.4356 4.08184 14.361 3.99688 14.2656 3.94187ZM12 3.5C12 3.40111 12.0293 3.30444 12.0843 3.22221C12.1392 3.13999 12.2173 3.0759 12.3087 3.03806C12.4 3.00022 12.5006 2.99031 12.5976 3.00961C12.6946 3.0289 12.7836 3.07652 12.8536 3.14645C12.9235 3.21637 12.9711 3.30546 12.9904 3.40245C13.0097 3.49945 12.9998 3.59998 12.962 3.69134C12.9241 3.7827 12.86 3.86079 12.7778 3.91573C12.6956 3.97068 12.5989 4 12.5 4C12.3674 4 12.2402 3.94732 12.1465 3.85355C12.0527 3.75979 12 3.63261 12 3.5ZM13.8344 6.50688C13.7036 6.52876 13.5869 6.6017 13.5099 6.70965C13.4329 6.8176 13.4019 6.95172 13.4238 7.0825C13.4745 7.3857 13.5 7.69258 13.5 8C13.5012 9.34637 13.0064 10.646 12.11 11.6506C11.5524 10.8425 10.7683 10.2174 9.85627 9.85375C10.3462 9.4679 10.7036 8.93899 10.879 8.34056C11.0543 7.74213 11.0388 7.10393 10.8346 6.51472C10.6305 5.9255 10.2478 5.41455 9.73973 5.05293C9.2317 4.69131 8.62361 4.49699 8.00002 4.49699C7.37643 4.49699 6.76833 4.69131 6.26031 5.05293C5.75228 5.41455 5.36956 5.9255 5.16538 6.51472C4.96121 7.10393 4.94571 7.74213 5.12106 8.34056C5.29641 8.93899 5.65388 9.4679 6.14377 9.85375C5.23178 10.2174 4.44766 10.8425 3.89002 11.6506C3.18672 10.8581 2.72731 9.8793 2.56704 8.8319C2.40678 7.7845 2.55247 6.71311 2.9866 5.74654C3.42074 4.77997 4.12483 3.95938 5.01422 3.38344C5.90361 2.8075 6.94043 2.50072 8.00002 2.5C8.30743 2.49995 8.61432 2.52546 8.91752 2.57625C9.04771 2.59679 9.18075 2.5651 9.2877 2.48806C9.39464 2.41102 9.46684 2.29486 9.48859 2.16486C9.51034 2.03487 9.47988 1.90154 9.40383 1.79388C9.32779 1.68623 9.21231 1.61295 9.08252 1.59C7.72467 1.36157 6.32935 1.57058 5.09804 2.18686C3.86672 2.80313 2.86312 3.79478 2.23213 5.01862C1.60114 6.24247 1.37543 7.63517 1.58756 8.99566C1.7997 10.3562 2.43872 11.614 3.41236 12.5877C4.38599 13.5613 5.64387 14.2003 7.00435 14.4125C8.36484 14.6246 9.75755 14.3989 10.9814 13.7679C12.2052 13.1369 13.1969 12.1333 13.8132 10.902C14.4294 9.67066 14.6384 8.27535 14.41 6.9175C14.3881 6.78672 14.3152 6.66999 14.2072 6.59298C14.0993 6.51597 13.9652 6.485 13.8344 6.50688ZM6.00002 7.5C6.00002 7.10444 6.11731 6.71776 6.33708 6.38886C6.55684 6.05996 6.8692 5.80362 7.23465 5.65224C7.6001 5.50087 8.00224 5.46126 8.3902 5.53843C8.77816 5.6156 9.13452 5.80608 9.41423 6.08579C9.69393 6.36549 9.88442 6.72186 9.96159 7.10982C10.0388 7.49778 9.99915 7.89991 9.84778 8.26537C9.6964 8.63082 9.44006 8.94318 9.11116 9.16294C8.78226 9.3827 8.39558 9.5 8.00002 9.5C7.46958 9.5 6.96088 9.28929 6.5858 8.91421C6.21073 8.53914 6.00002 8.03043 6.00002 7.5ZM4.63002 12.3438C4.99173 11.7781 5.49002 11.3125 6.07897 10.99C6.66792 10.6676 7.32856 10.4985 8.00002 10.4985C8.67147 10.4985 9.33212 10.6676 9.92107 10.99C10.51 11.3125 11.0083 11.7781 11.37 12.3438C10.4065 13.0931 9.22066 13.5 8.00002 13.5C6.77938 13.5 5.59356 13.0931 4.63002 12.3438Z" fill="#4D4D57"/>
</svg>
