<svg width="16" height="16" viewBox="0 0 16 16" fill="none" xmlns="http://www.w3.org/2000/svg">
<path opacity="0.13" d="M14 8C14.0009 8.84145 13.8244 9.67363 13.4819 10.4422C13.1394 11.2108 12.6387 11.8986 12.0125 12.4606C11.636 11.7201 11.0618 11.0982 10.3536 10.6639C9.6454 10.2296 8.83078 9.99978 8 10C8.49445 10 8.9778 9.85337 9.38893 9.57867C9.80005 9.30397 10.1205 8.91352 10.3097 8.4567C10.4989 7.99989 10.5484 7.49722 10.452 7.01227C10.3555 6.52732 10.1174 6.08186 9.76777 5.73223C9.41814 5.3826 8.97268 5.1445 8.48773 5.04803C8.00277 4.95157 7.50011 5.00108 7.04329 5.1903C6.58648 5.37952 6.19603 5.69995 5.92133 6.11107C5.64662 6.52219 5.5 7.00554 5.5 7.5C5.5 8.16304 5.76339 8.79892 6.23223 9.26776C6.70108 9.7366 7.33696 10 8 10C7.16922 9.99978 6.3546 10.2296 5.64639 10.6639C4.93817 11.0982 4.36401 11.7201 3.9875 12.4606C3.24391 11.7918 2.67931 10.9477 2.34504 10.005C2.01077 9.06241 1.91743 8.05118 2.07352 7.06329C2.22961 6.07541 2.63017 5.14221 3.23878 4.34856C3.84739 3.55491 4.64473 2.92599 5.55831 2.51899C6.47189 2.11198 7.47272 1.93981 8.46979 2.01812C9.46686 2.09643 10.4285 2.42274 11.2674 2.96738C12.1062 3.51202 12.7956 4.25771 13.2728 5.13664C13.7501 6.01557 14.0001 6.99986 14 8Z" fill="#4D4D57"/>
<path d="M8 1.5C6.71442 1.5 5.45772 1.88122 4.3888 2.59545C3.31988 3.30968 2.48676 4.32484 1.99479 5.51256C1.50282 6.70028 1.37409 8.00721 1.6249 9.26809C1.8757 10.529 2.49477 11.6872 3.40381 12.5962C4.31285 13.5052 5.47104 14.1243 6.73192 14.3751C7.99279 14.6259 9.29973 14.4972 10.4874 14.0052C11.6752 13.5132 12.6903 12.6801 13.4046 11.6112C14.1188 10.5423 14.5 9.28558 14.5 8C14.4982 6.27665 13.8128 4.62441 12.5942 3.40582C11.3756 2.18722 9.72335 1.50182 8 1.5ZM4.63 12.3438C4.99171 11.7781 5.49001 11.3125 6.07895 10.99C6.6679 10.6676 7.32855 10.4985 8 10.4985C8.67146 10.4985 9.3321 10.6676 9.92105 10.99C10.51 11.3125 11.0083 11.7781 11.37 12.3438C10.4065 13.0931 9.22064 13.5 8 13.5C6.77936 13.5 5.59354 13.0931 4.63 12.3438ZM6 7.5C6 7.10444 6.1173 6.71776 6.33706 6.38886C6.55683 6.05996 6.86918 5.80362 7.23464 5.65224C7.60009 5.50087 8.00222 5.46126 8.39018 5.53843C8.77815 5.6156 9.13451 5.80608 9.41422 6.08579C9.69392 6.36549 9.8844 6.72186 9.96157 7.10982C10.0387 7.49778 9.99914 7.89991 9.84776 8.26537C9.69639 8.63082 9.44004 8.94318 9.11114 9.16294C8.78224 9.3827 8.39557 9.5 8 9.5C7.46957 9.5 6.96086 9.28929 6.58579 8.91421C6.21072 8.53914 6 8.03043 6 7.5ZM12.11 11.6506C11.5524 10.8425 10.7682 10.2174 9.85625 9.85375C10.3461 9.4679 10.7036 8.93899 10.879 8.34056C11.0543 7.74213 11.0388 7.10393 10.8346 6.51472C10.6305 5.9255 10.2477 5.41455 9.73971 5.05293C9.23168 4.69131 8.62359 4.49699 8 4.49699C7.37641 4.49699 6.76832 4.69131 6.26029 5.05293C5.75226 5.41455 5.36955 5.9255 5.16537 6.51472C4.96119 7.10393 4.9457 7.74213 5.12105 8.34056C5.2964 8.93899 5.65387 9.4679 6.14375 9.85375C5.23176 10.2174 4.44765 10.8425 3.89 11.6506C3.18536 10.8582 2.7248 9.87903 2.56378 8.83094C2.40276 7.78285 2.54816 6.71056 2.98245 5.74319C3.41675 4.77582 4.12142 3.95461 5.01163 3.37846C5.90184 2.80231 6.93962 2.49578 8 2.49578C9.06039 2.49578 10.0982 2.80231 10.9884 3.37846C11.8786 3.95461 12.5833 4.77582 13.0176 5.74319C13.4518 6.71056 13.5972 7.78285 13.4362 8.83094C13.2752 9.87903 12.8146 10.8582 12.11 11.6506Z" fill="#4D4D57"/>
</svg>
