<svg width="16" height="16" viewBox="0 0 16 16" fill="none" xmlns="http://www.w3.org/2000/svg">
<path opacity="0.13" d="M13.9999 6C13.9997 6.69557 13.818 7.37905 13.4729 7.98298C13.1278 8.58691 12.6312 9.09041 12.0321 9.44379C11.433 9.79718 10.7521 9.98823 10.0566 9.99808C9.3611 10.0079 8.67505 9.83626 8.06617 9.5L4.56242 13.5625C4.28062 13.8443 3.89843 14.0026 3.49992 14.0026C3.1014 14.0026 2.71921 13.8443 2.43742 13.5625C2.15562 13.2807 1.99731 12.8985 1.99731 12.5C1.99731 12.1015 2.15562 11.7193 2.43742 11.4375L6.49992 7.93375C6.10021 7.21041 5.93437 6.38102 6.02518 5.55959C6.116 4.73816 6.45902 3.96503 7.00708 3.34647C7.55515 2.72791 8.28135 2.29429 9.08587 2.10523C9.89038 1.91616 10.7337 1.98093 11.4999 2.29063L8.99992 5L9.35367 6.64625L10.9999 7L13.7093 4.5C13.9019 4.97659 14.0006 5.48594 13.9999 6Z" fill="#4D4D57"/>
<path d="M14.1726 4.3125C14.1423 4.23753 14.0942 4.17104 14.0326 4.11873C13.9709 4.06642 13.8975 4.02985 13.8186 4.01215C13.7396 3.99445 13.6576 3.99616 13.5795 4.01712C13.5014 4.03808 13.4296 4.07767 13.3701 4.1325L10.8514 6.45687L9.7745 6.22562L9.54325 5.14875L11.8676 2.63C11.9224 2.57055 11.962 2.4987 11.983 2.4206C12.004 2.34249 12.0057 2.26047 11.988 2.18157C11.9703 2.10266 11.9337 2.02922 11.8814 1.96756C11.8291 1.90589 11.7626 1.85783 11.6876 1.8275C11.0045 1.55114 10.2639 1.4468 9.53095 1.52363C8.79802 1.60047 8.09518 1.85613 7.48418 2.26815C6.87317 2.68018 6.37271 3.23596 6.02677 3.88665C5.68082 4.53735 5.49998 5.26305 5.50012 6C5.49931 6.6223 5.62698 7.23806 5.87512 7.80875L2.112 11.0625C2.10262 11.07 2.09387 11.0787 2.08512 11.0869C1.71001 11.462 1.49927 11.9708 1.49927 12.5012C1.49927 12.7639 1.551 13.024 1.65153 13.2667C1.75205 13.5094 1.89938 13.7299 2.08512 13.9156C2.27086 14.1014 2.49136 14.2487 2.73404 14.3492C2.97672 14.4497 3.23682 14.5015 3.4995 14.5015C4.02999 14.5015 4.53876 14.2907 4.91387 13.9156C4.922 13.9075 4.93075 13.8981 4.93825 13.8894L8.19137 10.125C8.87664 10.4258 9.62611 10.551 10.3719 10.4891C11.1178 10.4273 11.8364 10.1804 12.4628 9.77086C13.0891 9.3613 13.6035 8.80199 13.9592 8.14357C14.315 7.48514 14.5009 6.74838 14.5001 6C14.5011 5.42161 14.3899 4.84853 14.1726 4.3125ZM10.0001 9.5C9.40829 9.49918 8.82628 9.34868 8.30825 9.0625C8.20788 9.00705 8.09152 8.98779 7.97864 9.00793C7.86576 9.02807 7.76324 9.08639 7.68825 9.17312L4.1945 13.2194C4.00543 13.399 3.75368 13.4977 3.49292 13.4943C3.23216 13.491 2.98302 13.3859 2.79862 13.2015C2.61422 13.0171 2.50914 12.768 2.50581 12.5072C2.50247 12.2464 2.60113 11.9947 2.78075 11.8056L6.82387 8.3125C6.91075 8.23747 6.96917 8.13483 6.98932 8.02182C7.00946 7.9088 6.9901 7.7923 6.9345 7.69187C6.61576 7.1154 6.46618 6.46068 6.50295 5.80298C6.53972 5.14529 6.76134 4.51132 7.14234 3.97397C7.52334 3.43661 8.04825 3.01768 8.65672 2.76534C9.2652 2.513 9.93253 2.43749 10.582 2.5475L8.632 4.66062C8.57774 4.71948 8.53841 4.7905 8.51731 4.86772C8.49621 4.94494 8.49396 5.0261 8.51075 5.10437L8.8645 6.75C8.88473 6.84412 8.9317 6.93039 8.99978 6.99847C9.06785 7.06654 9.15413 7.11351 9.24825 7.13375L10.8951 7.4875C10.9734 7.50429 11.0545 7.50203 11.1318 7.48094C11.209 7.45984 11.28 7.4205 11.3389 7.36625L13.452 5.41625C13.5362 5.91813 13.5101 6.43233 13.3755 6.92311C13.2409 7.41388 13.001 7.86943 12.6725 8.25809C12.3439 8.64675 11.9347 8.95918 11.4732 9.17365C11.0117 9.38812 10.509 9.49948 10.0001 9.5Z" fill="#4D4D57"/>
</svg>
