<svg width="16" height="16" viewBox="0 0 16 16" fill="none" xmlns="http://www.w3.org/2000/svg">
<path d="M11.883 11.3168C11.9202 11.354 11.9497 11.3981 11.9698 11.4466C11.9899 11.4952 12.0002 11.5472 12.0002 11.5998C12.0002 11.6524 11.9899 11.7044 11.9698 11.7529C11.9497 11.8015 11.9202 11.8456 11.883 11.8828C11.8459 11.9199 11.8017 11.9494 11.7532 11.9695C11.7046 11.9896 11.6526 12 11.6 12C11.5475 12 11.4954 11.9896 11.4469 11.9695C11.3983 11.9494 11.3542 11.9199 11.3171 11.8828L8.00024 8.56547L4.68343 11.8828C4.60838 11.9578 4.50658 12 4.40044 12C4.2943 12 4.19251 11.9578 4.11746 11.8828C4.04241 11.8077 4.00024 11.7059 4.00024 11.5998C4.00024 11.4937 4.04241 11.3919 4.11746 11.3168L7.43478 8L4.11746 4.68318C4.04241 4.60813 4.00024 4.50634 4.00024 4.4002C4.00024 4.29406 4.04241 4.19227 4.11746 4.11722C4.19251 4.04216 4.2943 4 4.40044 4C4.50658 4 4.60838 4.04216 4.68343 4.11722L8.00024 7.43453L11.3171 4.11722C11.3921 4.04216 11.4939 4 11.6 4C11.7062 4 11.808 4.04216 11.883 4.11722C11.9581 4.19227 12.0002 4.29406 12.0002 4.4002C12.0002 4.50634 11.9581 4.60813 11.883 4.68318L8.56571 8L11.883 11.3168Z" fill="#4D4D57"/>
</svg>
