<svg width="16" height="16" viewBox="0 0 16 16" fill="none" xmlns="http://www.w3.org/2000/svg">
<path d="M13.9999 7.99997C13.9999 8.13258 13.9472 8.25976 13.8535 8.35353C13.7597 8.44729 13.6325 8.49997 13.4999 8.49997H3.70678L7.35366 12.1462C7.40011 12.1927 7.43696 12.2478 7.4621 12.3085C7.48724 12.3692 7.50018 12.4343 7.50018 12.5C7.50018 12.5657 7.48724 12.6307 7.4621 12.6914C7.43696 12.7521 7.40011 12.8073 7.35366 12.8537C7.3072 12.9002 7.25205 12.937 7.19135 12.9622C7.13066 12.9873 7.0656 13.0003 6.99991 13.0003C6.93421 13.0003 6.86915 12.9873 6.80846 12.9622C6.74776 12.937 6.69261 12.9002 6.64615 12.8537L2.14615 8.35372C2.09967 8.30729 2.06279 8.25214 2.03763 8.19144C2.01246 8.13074 1.99951 8.06568 1.99951 7.99997C1.99951 7.93427 2.01246 7.8692 2.03763 7.8085C2.06279 7.7478 2.09967 7.69266 2.14615 7.64622L6.64615 3.14622C6.73997 3.0524 6.86722 2.99969 6.99991 2.99969C7.13259 2.99969 7.25984 3.0524 7.35366 3.14622C7.44748 3.24004 7.50018 3.36729 7.50018 3.49997C7.50018 3.63265 7.44748 3.7599 7.35366 3.85372L3.70678 7.49997H13.4999C13.6325 7.49997 13.7597 7.55265 13.8535 7.64642C13.9472 7.74019 13.9999 7.86736 13.9999 7.99997Z" fill="#4D4D57"/>
</svg>
