<svg width="16" height="16" viewBox="0 0 16 16" fill="none" xmlns="http://www.w3.org/2000/svg">
<path d="M10.9792 9.15437C10.9586 9.10868 10.9236 9.06963 10.8788 9.04216C10.8339 9.01468 10.7812 9.00001 10.7273 9H5.27293C5.21896 8.99996 5.16619 9.0146 5.12131 9.04207C5.07642 9.06953 5.04143 9.10859 5.02077 9.15429C5.00011 9.2 4.99471 9.25029 5.00525 9.29881C5.01579 9.34733 5.0418 9.39189 5.07998 9.42685L7.80715 11.9267C7.83248 11.9499 7.86255 11.9684 7.89566 11.9809C7.92877 11.9935 7.96426 12 8.0001 12C8.03593 12 8.07142 11.9935 8.10453 11.9809C8.13764 11.9684 8.16771 11.9499 8.19304 11.9267L10.9202 9.42685C10.9583 9.39187 10.9843 9.34731 10.9948 9.29881C11.0053 9.2503 10.9999 9.20004 10.9792 9.15437Z" fill="#4D4D57"/>
<path opacity="0.2" d="M10.9792 6.84563C10.9586 6.89132 10.9236 6.93037 10.8788 6.95784C10.8339 6.98532 10.7812 6.99999 10.7273 7H5.27293C5.21896 7.00004 5.16619 6.9854 5.12131 6.95793C5.07642 6.93047 5.04143 6.89141 5.02077 6.84571C5.00011 6.8 4.99471 6.74971 5.00525 6.70119C5.01579 6.65267 5.0418 6.60811 5.07998 6.57315L7.80715 4.07332C7.83248 4.05007 7.86255 4.03164 7.89566 4.01906C7.92877 4.00648 7.96426 4 8.0001 4C8.03593 4 8.07142 4.00648 8.10453 4.01906C8.13764 4.03164 8.16771 4.05007 8.19304 4.07332L10.9202 6.57315C10.9583 6.60813 10.9843 6.65269 10.9948 6.70119C11.0053 6.7497 10.9999 6.79996 10.9792 6.84563Z" fill="#4D4D57"/>
</svg>
