<svg width="16" height="16" viewBox="0 0 16 16" fill="none" xmlns="http://www.w3.org/2000/svg">
<path d="M12.38 9.78859L8.28941 5.62219C8.25142 5.58346 8.20631 5.55273 8.15665 5.53176C8.10699 5.51079 8.05376 5.5 8 5.5C7.94624 5.5 7.89301 5.51079 7.84335 5.53176C7.79369 5.55273 7.74858 5.58346 7.71059 5.62219L3.61997 9.78859C3.5627 9.84686 3.52369 9.92112 3.50788 10.002C3.49207 10.0829 3.50017 10.1667 3.53116 10.2428C3.56214 10.319 3.61462 10.3841 3.68195 10.4299C3.74928 10.4757 3.82843 10.5001 3.90938 10.5H12.0906C12.1716 10.5001 12.2507 10.4757 12.318 10.4299C12.3854 10.3841 12.4379 10.319 12.4688 10.2428C12.4998 10.1667 12.5079 10.0829 12.4921 10.002C12.4763 9.92112 12.4373 9.84686 12.38 9.78859Z" fill="#4D4D57"/>
</svg>
