<svg width="16" height="16" viewBox="0 0 16 16" fill="none" xmlns="http://www.w3.org/2000/svg">
<path d="M10.3778 8.28941L6.21141 12.38C6.15314 12.4373 6.07888 12.4763 5.99801 12.4921C5.91715 12.5079 5.83333 12.4998 5.75715 12.4688C5.68098 12.4379 5.61589 12.3854 5.57011 12.318C5.52434 12.2507 5.49994 12.1716 5.5 12.0906V3.90938C5.49994 3.82843 5.52434 3.74928 5.57011 3.68195C5.61589 3.61462 5.68098 3.56214 5.75715 3.53116C5.83333 3.50017 5.91715 3.49207 5.99801 3.50788C6.07888 3.52369 6.15314 3.5627 6.21141 3.61997L10.3778 7.71059C10.4165 7.74858 10.4473 7.79369 10.4682 7.84335C10.4892 7.89301 10.5 7.94624 10.5 8C10.5 8.05376 10.4892 8.10699 10.4682 8.15665C10.4473 8.20631 10.4165 8.25142 10.3778 8.28941Z" fill="#4D4D57"/>
</svg>
