<svg width="16" height="16" viewBox="0 0 16 16" fill="none" xmlns="http://www.w3.org/2000/svg">
<path opacity="0.13" d="M14 8C14 9.18669 13.6481 10.3467 12.9888 11.3334C12.3295 12.3201 11.3925 13.0892 10.2961 13.5433C9.19975 13.9974 7.99335 14.1162 6.82946 13.8847C5.66558 13.6532 4.59648 13.0818 3.75736 12.2426C2.91825 11.4035 2.3468 10.3344 2.11529 9.17054C1.88378 8.00666 2.0026 6.80026 2.45673 5.7039C2.91085 4.60754 3.67989 3.67047 4.66658 3.01118C5.65328 2.35189 6.81331 2 8 2C9.5913 2 11.1174 2.63214 12.2426 3.75736C13.3679 4.88258 14 6.4087 14 8Z" fill="#4D4D57"/>
<path d="M6.01635 2.3125C5.98386 2.18447 6.00335 2.04879 6.07057 1.93508C6.13778 1.82137 6.24726 1.73888 6.3751 1.70563C7.44099 1.43073 8.5592 1.43073 9.6251 1.70563C9.74316 1.73585 9.84611 1.80816 9.91462 1.90895C9.98312 2.00975 10.0125 2.13209 9.9971 2.25299C9.98175 2.37389 9.92277 2.48502 9.83125 2.56549C9.73973 2.64596 9.62197 2.69024 9.5001 2.69C9.45792 2.68978 9.41593 2.68432 9.3751 2.67375C8.47319 2.44113 7.52701 2.44113 6.6251 2.67375C6.5614 2.69008 6.49512 2.69368 6.43003 2.68435C6.36494 2.67502 6.30234 2.65295 6.24579 2.6194C6.18925 2.58584 6.13987 2.54146 6.1005 2.4888C6.06113 2.43614 6.03253 2.37623 6.01635 2.3125ZM3.36197 3.44625C2.59101 4.23112 2.03189 5.19884 1.73697 6.25875C1.71819 6.32243 1.71228 6.3892 1.71959 6.45519C1.72689 6.52117 1.74726 6.58504 1.77951 6.64306C1.81176 6.70109 1.85524 6.75212 1.90741 6.79316C1.95959 6.83421 2.01942 6.86445 2.08341 6.88213C2.1474 6.89981 2.21427 6.90456 2.28011 6.89612C2.34596 6.88769 2.40947 6.86622 2.46693 6.83298C2.52439 6.79973 2.57466 6.75538 2.6148 6.7025C2.65494 6.64963 2.68415 6.58929 2.70072 6.525C2.95001 5.62799 3.42315 4.80903 4.07572 4.145C4.16106 4.049 4.20619 3.92384 4.20174 3.79547C4.19729 3.6671 4.1436 3.54537 4.05182 3.45551C3.96003 3.36565 3.83718 3.31457 3.70875 3.31284C3.58031 3.31112 3.45614 3.35889 3.36197 3.44625ZM2.70072 9.47188C2.68316 9.4086 2.6533 9.34939 2.61286 9.29765C2.57241 9.24591 2.52217 9.20264 2.46501 9.17031C2.40784 9.13799 2.34487 9.11724 2.27968 9.10925C2.2145 9.10126 2.14838 9.10619 2.0851 9.12375C2.02182 9.14132 1.96261 9.17117 1.91087 9.21162C1.85913 9.25206 1.81586 9.3023 1.78353 9.35947C1.75121 9.41663 1.73046 9.47961 1.72247 9.54479C1.71448 9.60998 1.71941 9.6761 1.73697 9.73938C2.03189 10.7993 2.59101 11.767 3.36197 12.5519C3.40754 12.6005 3.46238 12.6396 3.52327 12.6668C3.58416 12.6939 3.64987 12.7086 3.71653 12.71C3.78318 12.7114 3.84945 12.6995 3.91142 12.6749C3.97338 12.6503 4.02981 12.6135 4.07737 12.5668C4.12493 12.5201 4.16266 12.4643 4.18835 12.4028C4.21404 12.3413 4.22716 12.2752 4.22695 12.2085C4.22674 12.1419 4.2132 12.0759 4.18712 12.0146C4.16104 11.9532 4.12295 11.8977 4.0751 11.8513C3.42334 11.187 2.95051 10.3684 2.70072 9.47188ZM9.3751 13.3263C8.47322 13.5591 7.52697 13.5591 6.6251 13.3263C6.56116 13.3087 6.49437 13.304 6.42861 13.3125C6.36285 13.321 6.29944 13.3425 6.24207 13.3758C6.18469 13.409 6.1345 13.4533 6.09442 13.5061C6.05433 13.5589 6.02515 13.6192 6.00857 13.6834C5.99199 13.7476 5.98835 13.8144 5.99785 13.8801C6.00736 13.9457 6.02981 14.0088 6.06392 14.0656C6.09803 14.1225 6.14311 14.172 6.19653 14.2113C6.24995 14.2505 6.31065 14.2788 6.3751 14.2944C7.44099 14.5693 8.5592 14.5693 9.6251 14.2944C9.75169 14.2596 9.85954 14.1765 9.92534 14.0629C9.99115 13.9493 10.0096 13.8143 9.97681 13.6872C9.94399 13.5601 9.86248 13.451 9.7499 13.3835C9.63732 13.3159 9.5027 13.2954 9.3751 13.3263ZM13.9157 9.125C13.8524 9.10743 13.7863 9.10249 13.7211 9.11047C13.6559 9.11845 13.593 9.1392 13.5358 9.17153C13.4786 9.20386 13.4284 9.24713 13.3879 9.29888C13.3475 9.35063 13.3177 9.40984 13.3001 9.47313C13.051 10.3704 12.5778 11.1896 11.9251 11.8538C11.8791 11.9006 11.8428 11.9561 11.8182 12.017C11.7936 12.0779 11.7813 12.143 11.7819 12.2087C11.7825 12.2744 11.7961 12.3393 11.8218 12.3997C11.8474 12.4602 11.8848 12.5149 11.9317 12.5609C11.9785 12.6069 12.034 12.6433 12.0949 12.6678C12.1558 12.6924 12.2209 12.7047 12.2866 12.7041C12.3523 12.7035 12.4172 12.69 12.4776 12.6643C12.5381 12.6386 12.5928 12.6012 12.6388 12.5544C13.4097 11.7694 13.9688 10.8017 14.2638 9.74188C14.2816 9.67851 14.2867 9.61227 14.2788 9.54694C14.2709 9.48161 14.2502 9.41847 14.2179 9.36116C14.1855 9.30385 14.1422 9.25349 14.0903 9.21297C14.0385 9.17244 13.9791 9.14255 13.9157 9.125ZM13.2995 6.52875C13.317 6.59203 13.3469 6.65123 13.3873 6.70298C13.4278 6.75472 13.478 6.79799 13.5352 6.83032C13.5924 6.86264 13.6553 6.88339 13.7205 6.89138C13.7857 6.89937 13.8518 6.89444 13.9151 6.87688C13.9784 6.85931 14.0376 6.82946 14.0893 6.78901C14.1411 6.74857 14.1843 6.69833 14.2167 6.64116C14.249 6.584 14.2697 6.52102 14.2777 6.45584C14.2857 6.39065 14.2808 6.32453 14.2632 6.26125C13.9683 5.20134 13.4092 4.23362 12.6382 3.44875C12.5927 3.40008 12.5378 3.36102 12.4769 3.33386C12.416 3.3067 12.3503 3.29199 12.2837 3.2906C12.217 3.28921 12.1507 3.30117 12.0888 3.32577C12.0268 3.35036 11.9704 3.3871 11.9228 3.43383C11.8753 3.48056 11.8375 3.53632 11.8118 3.59784C11.7862 3.65937 11.773 3.72541 11.7732 3.79208C11.7735 3.85875 11.787 3.92471 11.8131 3.98607C11.8392 4.04743 11.8772 4.10295 11.9251 4.14938C12.5768 4.8135 13.0496 5.63187 13.2995 6.52813V6.52875Z" fill="#4D4D57"/>
</svg>
