<svg width="16" height="16" viewBox="0 0 16 16" fill="none" xmlns="http://www.w3.org/2000/svg">
<path opacity="0.13" d="M14 8C14 9.18669 13.6481 10.3467 12.9888 11.3334C12.3295 12.3201 11.3925 13.0892 10.2961 13.5433C9.19975 13.9974 7.99335 14.1162 6.82946 13.8847C5.66558 13.6532 4.59648 13.0818 3.75736 12.2426C2.91825 11.4035 2.3468 10.3344 2.11529 9.17054C1.88378 8.00666 2.0026 6.80026 2.45673 5.7039C2.91085 4.60754 3.67989 3.67047 4.66658 3.01118C5.65328 2.35189 6.81331 2 8 2C9.5913 2 11.1174 2.63214 12.2426 3.75736C13.3679 4.88258 14 6.4087 14 8Z" fill="#4D4D57"/>
<path d="M14.5001 8.54124C14.3939 9.77622 13.9371 10.9552 13.1836 11.9394C12.4301 12.9236 11.4112 13.6722 10.2467 14.097C9.08222 14.5218 7.82063 14.6052 6.61037 14.3373C5.40012 14.0695 4.29153 13.4615 3.41504 12.585C2.53855 11.7086 1.93062 10.6 1.66277 9.38971C1.39493 8.17945 1.47831 6.91786 1.90311 5.75338C2.32791 4.5889 3.07646 3.56997 4.06068 2.81646C5.0449 2.06295 6.22386 1.60622 7.45884 1.49999C7.5245 1.49457 7.59059 1.50214 7.65333 1.52226C7.71606 1.54239 7.77422 1.57467 7.82448 1.61727C7.87474 1.65987 7.91612 1.71195 7.94625 1.77054C7.97638 1.82913 7.99468 1.89308 8.00009 1.95874C8.00551 2.0244 7.99794 2.09049 7.97782 2.15322C7.9577 2.21596 7.92541 2.27412 7.88281 2.32437C7.84022 2.37463 7.78814 2.41601 7.72955 2.44614C7.67096 2.47628 7.607 2.49457 7.54134 2.49999C6.49609 2.5898 5.49822 2.97628 4.66516 3.61397C3.8321 4.25165 3.19851 5.11401 2.83892 6.09957C2.47934 7.08513 2.40873 8.15289 2.6354 9.17722C2.86207 10.2016 3.37659 11.1398 4.11842 11.8817C4.86025 12.6235 5.79853 13.138 6.82286 13.3647C7.84719 13.5914 8.91495 13.5207 9.90051 13.1612C10.8861 12.8016 11.7484 12.168 12.3861 11.3349C13.0238 10.5019 13.4103 9.504 13.5001 8.45874C13.511 8.32613 13.5742 8.2033 13.6757 8.11727C13.7772 8.03124 13.9087 7.98905 14.0413 7.99999C14.174 8.01093 14.2968 8.0741 14.3828 8.1756C14.4688 8.27711 14.511 8.40863 14.5001 8.54124ZM7.50009 4.49999V7.99999C7.50009 8.1326 7.55277 8.25978 7.64654 8.35354C7.74031 8.44731 7.86749 8.49999 8.00009 8.49999H11.5001C11.6327 8.49999 11.7599 8.44731 11.8536 8.35354C11.9474 8.25978 12.0001 8.1326 12.0001 7.99999C12.0001 7.86738 11.9474 7.7402 11.8536 7.64644C11.7599 7.55267 11.6327 7.49999 11.5001 7.49999H8.50009V4.49999C8.50009 4.36738 8.44742 4.2402 8.35365 4.14644C8.25988 4.05267 8.1327 3.99999 8.00009 3.99999C7.86749 3.99999 7.74031 4.05267 7.64654 4.14644C7.55277 4.2402 7.50009 4.36738 7.50009 4.49999ZM10.0001 2.99999C10.1484 2.99999 10.2934 2.956 10.4168 2.87359C10.5401 2.79118 10.6362 2.67405 10.693 2.537C10.7498 2.39996 10.7646 2.24916 10.7357 2.10367C10.7067 1.95819 10.6353 1.82455 10.5304 1.71966C10.4255 1.61477 10.2919 1.54334 10.1464 1.5144C10.0009 1.48546 9.85013 1.50031 9.71308 1.55708C9.57604 1.61385 9.4589 1.70998 9.37649 1.83331C9.29408 1.95665 9.25009 2.10165 9.25009 2.24999C9.25009 2.4489 9.32911 2.63967 9.46976 2.78032C9.61042 2.92097 9.80118 2.99999 10.0001 2.99999ZM12.2501 4.49999C12.3984 4.49999 12.5434 4.456 12.6668 4.37359C12.7901 4.29118 12.8862 4.17405 12.943 4.037C12.9998 3.89996 13.0146 3.74916 12.9857 3.60367C12.9567 3.45819 12.8853 3.32455 12.7804 3.21966C12.6755 3.11477 12.5419 3.04334 12.3964 3.0144C12.2509 2.98546 12.1001 3.00031 11.9631 3.05708C11.826 3.11385 11.7089 3.20998 11.6265 3.33331C11.5441 3.45665 11.5001 3.60165 11.5001 3.74999C11.5001 3.9489 11.5791 4.13967 11.7198 4.28032C11.8604 4.42097 12.0512 4.49999 12.2501 4.49999ZM13.7501 6.74999C13.8984 6.74999 14.0434 6.706 14.1668 6.62359C14.2901 6.54118 14.3862 6.42405 14.443 6.287C14.4998 6.14996 14.5146 5.99916 14.4857 5.85367C14.4567 5.70819 14.3853 5.57455 14.2804 5.46966C14.1755 5.36477 14.0419 5.29334 13.8964 5.2644C13.7509 5.23546 13.6001 5.25031 13.4631 5.30708C13.326 5.36385 13.2089 5.45998 13.1265 5.58331C13.0441 5.70665 13.0001 5.85165 13.0001 5.99999C13.0001 6.1989 13.0791 6.38967 13.2198 6.53032C13.3604 6.67097 13.5512 6.74999 13.7501 6.74999Z" fill="#4D4D57"/>
</svg>
