<svg width="16" height="16" viewBox="0 0 16 16" fill="none" xmlns="http://www.w3.org/2000/svg">
<path opacity="0.13" d="M8 3.5C3 3.5 1 8 1 8C1 8 3 12.5 8 12.5C13 12.5 15 8 15 8C15 8 13 3.5 8 3.5ZM8 10.5C7.50555 10.5 7.0222 10.3534 6.61107 10.0787C6.19995 9.80397 5.87952 9.41352 5.6903 8.95671C5.50108 8.49989 5.45157 7.99723 5.54804 7.51227C5.6445 7.02732 5.8826 6.58186 6.23223 6.23223C6.58186 5.8826 7.02732 5.6445 7.51227 5.54804C7.99723 5.45157 8.49989 5.50108 8.95671 5.6903C9.41352 5.87952 9.80397 6.19995 10.0787 6.61107C10.3534 7.0222 10.5 7.50555 10.5 8C10.5 8.66304 10.2366 9.29893 9.76777 9.76777C9.29893 10.2366 8.66304 10.5 8 10.5Z" fill="#4D4D57"/>
<path d="M15.4569 7.7975C15.435 7.74813 14.9056 6.57375 13.7287 5.39687C12.1606 3.82875 10.18 3 7.99999 3C5.81999 3 3.83937 3.82875 2.27124 5.39687C1.09437 6.57375 0.562494 7.75 0.543119 7.7975C0.51469 7.86144 0.5 7.93064 0.5 8.00062C0.5 8.0706 0.51469 8.1398 0.543119 8.20375C0.564994 8.25312 1.09437 9.42688 2.27124 10.6038C3.83937 12.1713 5.81999 13 7.99999 13C10.18 13 12.1606 12.1713 13.7287 10.6038C14.9056 9.42688 15.435 8.25312 15.4569 8.20375C15.4853 8.1398 15.5 8.0706 15.5 8.00062C15.5 7.93064 15.4853 7.86144 15.4569 7.7975ZM7.99999 12C6.07624 12 4.39562 11.3006 3.00437 9.92188C2.43352 9.35418 1.94786 8.70685 1.56249 8C1.94776 7.29309 2.43343 6.64574 3.00437 6.07812C4.39562 4.69938 6.07624 4 7.99999 4C9.92374 4 11.6044 4.69938 12.9956 6.07812C13.5676 6.6456 14.0543 7.29295 14.4406 8C13.99 8.84125 12.0269 12 7.99999 12ZM7.99999 5C7.40665 5 6.82663 5.17595 6.33328 5.50559C5.83994 5.83524 5.45542 6.30377 5.22836 6.85195C5.00129 7.40013 4.94188 8.00333 5.05764 8.58527C5.17339 9.16721 5.45912 9.70176 5.87867 10.1213C6.29823 10.5409 6.83278 10.8266 7.41472 10.9424C7.99667 11.0581 8.59987 10.9987 9.14804 10.7716C9.69622 10.5446 10.1648 10.1601 10.4944 9.66671C10.824 9.17336 11 8.59334 11 8C10.9992 7.2046 10.6828 6.44202 10.1204 5.87959C9.55797 5.31716 8.79539 5.00083 7.99999 5ZM7.99999 10C7.60443 10 7.21775 9.8827 6.88885 9.66294C6.55996 9.44318 6.30361 9.13082 6.15224 8.76537C6.00086 8.39991 5.96125 7.99778 6.03842 7.60982C6.11559 7.22186 6.30608 6.86549 6.58578 6.58579C6.86549 6.30608 7.22185 6.1156 7.60981 6.03843C7.99778 5.96126 8.39991 6.00087 8.76536 6.15224C9.13081 6.30362 9.44317 6.55996 9.66293 6.88886C9.8827 7.21776 9.99999 7.60444 9.99999 8C9.99999 8.53043 9.78928 9.03914 9.41421 9.41421C9.03913 9.78929 8.53043 10 7.99999 10Z" fill="#4D4D57"/>
</svg>
