<svg width="16" height="16" viewBox="0 0 16 16" fill="none" xmlns="http://www.w3.org/2000/svg">
<path opacity="0.13" d="M12 4V4.83313C12 4.94131 11.9649 5.04658 11.9 5.13312L10.6 6.86688C10.5351 6.95342 10.5 7.05869 10.5 7.16687V14C10.5 14.1326 10.4473 14.2598 10.3536 14.3536C10.2598 14.4473 10.1326 14.5 10 14.5H6C5.86739 14.5 5.74021 14.4473 5.64645 14.3536C5.55268 14.2598 5.5 14.1326 5.5 14V7.16687C5.5 7.05869 5.46491 6.95342 5.4 6.86688L4.1 5.13312C4.03509 5.04658 4 4.94131 4 4.83313V4H12Z" fill="#4D4D57"/>
<path d="M11.5 1H4.5C4.23478 1 3.98043 1.10536 3.79289 1.29289C3.60536 1.48043 3.5 1.73478 3.5 2V4.83313C3.50054 5.04941 3.57066 5.25978 3.7 5.43313L5 7.16687V14C5 14.2652 5.10536 14.5196 5.29289 14.7071C5.48043 14.8946 5.73478 15 6 15H10C10.2652 15 10.5196 14.8946 10.7071 14.7071C10.8946 14.5196 11 14.2652 11 14V7.16687L12.3 5.43313C12.4293 5.25978 12.4995 5.04941 12.5 4.83313V2C12.5 1.73478 12.3946 1.48043 12.2071 1.29289C12.0196 1.10536 11.7652 1 11.5 1ZM4.5 2H11.5V3.5H4.5V2ZM10.2 6.56687C10.0707 6.74022 10.0005 6.95059 10 7.16687V14H6V7.16687C5.99946 6.95059 5.92934 6.74022 5.8 6.56687L4.5 4.83313V4.5H11.5V4.83313L10.2 6.56687ZM8.5 7.5V9.5C8.5 9.63261 8.44732 9.75979 8.35355 9.85355C8.25979 9.94732 8.13261 10 8 10C7.86739 10 7.74021 9.94732 7.64645 9.85355C7.55268 9.75979 7.5 9.63261 7.5 9.5V7.5C7.5 7.36739 7.55268 7.24021 7.64645 7.14645C7.74021 7.05268 7.86739 7 8 7C8.13261 7 8.25979 7.05268 8.35355 7.14645C8.44732 7.24021 8.5 7.36739 8.5 7.5Z" fill="#4D4D57"/>
</svg>
