<svg width="16" height="16" viewBox="0 0 16 16" fill="none" xmlns="http://www.w3.org/2000/svg">
<path opacity="0.13" d="M13.5 7.29312V13.5H9.5V9.5H6.5V13.5H2.5V7.29312L7.64625 2.14625C7.69269 2.09976 7.74783 2.06288 7.80853 2.03772C7.86923 2.01255 7.93429 1.9996 8 1.9996C8.06571 1.9996 8.13077 2.01255 8.19147 2.03772C8.25217 2.06288 8.30731 2.09976 8.35375 2.14625L13.5 7.29312Z" fill="#4D4D57"/>
<path d="M15 13H14V8.50001L14.1462 8.64626C14.2402 8.74008 14.3676 8.79272 14.5004 8.7926C14.6332 8.79249 14.7606 8.73962 14.8544 8.64563C14.9482 8.55165 15.0008 8.42424 15.0007 8.29144C15.0006 8.15864 14.9477 8.03133 14.8538 7.93751L8.70687 1.79251C8.51936 1.60511 8.2651 1.49985 8 1.49985C7.7349 1.49985 7.48064 1.60511 7.29313 1.79251L1.14625 7.93751C1.05251 8.03133 0.999884 8.15854 0.999943 8.29117C1 8.42379 1.05274 8.55096 1.14656 8.6447C1.24038 8.73843 1.3676 8.79106 1.50022 8.791C1.63284 8.79095 1.76001 8.7382 1.85375 8.64438L2 8.50001V13H1C0.867392 13 0.740215 13.0527 0.646447 13.1465C0.552678 13.2402 0.5 13.3674 0.5 13.5C0.5 13.6326 0.552678 13.7598 0.646447 13.8536C0.740215 13.9473 0.867392 14 1 14H15C15.1326 14 15.2598 13.9473 15.3536 13.8536C15.4473 13.7598 15.5 13.6326 15.5 13.5C15.5 13.3674 15.4473 13.2402 15.3536 13.1465C15.2598 13.0527 15.1326 13 15 13ZM3 7.50001L8 2.50001L13 7.50001V13H10V9.50001C10 9.3674 9.94732 9.24022 9.85355 9.14646C9.75979 9.05269 9.63261 9.00001 9.5 9.00001H6.5C6.36739 9.00001 6.24021 9.05269 6.14645 9.14646C6.05268 9.24022 6 9.3674 6 9.50001V13H3V7.50001ZM9 13H7V10H9V13Z" fill="#4D4D57"/>
</svg>
