<svg width="16" height="16" viewBox="0 0 16 16" fill="none" xmlns="http://www.w3.org/2000/svg">
<path d="M13 8C13 8.15913 12.9368 8.31174 12.8243 8.42426C12.7117 8.53679 12.5591 8.6 12.4 8.6H8.6V12.4C8.6 12.5591 8.53679 12.7117 8.42426 12.8243C8.31174 12.9368 8.15913 13 8 13C7.84087 13 7.68826 12.9368 7.57574 12.8243C7.46321 12.7117 7.4 12.5591 7.4 12.4V8.6H3.6C3.44087 8.6 3.28826 8.53679 3.17574 8.42426C3.06321 8.31174 3 8.15913 3 8C3 7.84087 3.06321 7.68826 3.17574 7.57574C3.28826 7.46321 3.44087 7.4 3.6 7.4H7.4V3.6C7.4 3.44087 7.46321 3.28826 7.57574 3.17574C7.68826 3.06321 7.84087 3 8 3C8.15913 3 8.31174 3.06321 8.42426 3.17574C8.53679 3.28826 8.6 3.44087 8.6 3.6V7.4H12.4C12.5591 7.4 12.7117 7.46321 12.8243 7.57574C12.9368 7.68826 13 7.84087 13 8Z" fill="#4D4D57"/>
</svg>
