<svg width="16" height="16" viewBox="0 0 16 16" fill="none" xmlns="http://www.w3.org/2000/svg">
<path opacity="0.13" d="M7 3.5V6.5C7 6.63261 6.94732 6.75979 6.85355 6.85355C6.75979 6.94732 6.63261 7 6.5 7H3.5C3.36739 7 3.24021 6.94732 3.14645 6.85355C3.05268 6.75979 3 6.63261 3 6.5V3.5C3 3.36739 3.05268 3.24021 3.14645 3.14645C3.24021 3.05268 3.36739 3 3.5 3H6.5C6.63261 3 6.75979 3.05268 6.85355 3.14645C6.94732 3.24021 7 3.36739 7 3.5ZM6.5 9H3.5C3.36739 9 3.24021 9.05268 3.14645 9.14645C3.05268 9.24021 3 9.36739 3 9.5V12.5C3 12.6326 3.05268 12.7598 3.14645 12.8536C3.24021 12.9473 3.36739 13 3.5 13H6.5C6.63261 13 6.75979 12.9473 6.85355 12.8536C6.94732 12.7598 7 12.6326 7 12.5V9.5C7 9.36739 6.94732 9.24021 6.85355 9.14645C6.75979 9.05268 6.63261 9 6.5 9ZM12.5 3H9.5C9.36739 3 9.24021 3.05268 9.14645 3.14645C9.05268 3.24021 9 3.36739 9 3.5V6.5C9 6.63261 9.05268 6.75979 9.14645 6.85355C9.24021 6.94732 9.36739 7 9.5 7H12.5C12.6326 7 12.7598 6.94732 12.8536 6.85355C12.9473 6.75979 13 6.63261 13 6.5V3.5C13 3.36739 12.9473 3.24021 12.8536 3.14645C12.7598 3.05268 12.6326 3 12.5 3Z" fill="#4D4D57"/>
<path d="M6.5 2.5H3.5C3.23478 2.5 2.98043 2.60536 2.79289 2.79289C2.60536 2.98043 2.5 3.23478 2.5 3.5V6.5C2.5 6.76522 2.60536 7.01957 2.79289 7.20711C2.98043 7.39464 3.23478 7.5 3.5 7.5H6.5C6.76522 7.5 7.01957 7.39464 7.20711 7.20711C7.39464 7.01957 7.5 6.76522 7.5 6.5V3.5C7.5 3.23478 7.39464 2.98043 7.20711 2.79289C7.01957 2.60536 6.76522 2.5 6.5 2.5ZM6.5 6.5H3.5V3.5H6.5V6.5ZM6.5 8.5H3.5C3.23478 8.5 2.98043 8.60536 2.79289 8.79289C2.60536 8.98043 2.5 9.23478 2.5 9.5V12.5C2.5 12.7652 2.60536 13.0196 2.79289 13.2071C2.98043 13.3946 3.23478 13.5 3.5 13.5H6.5C6.76522 13.5 7.01957 13.3946 7.20711 13.2071C7.39464 13.0196 7.5 12.7652 7.5 12.5V9.5C7.5 9.23478 7.39464 8.98043 7.20711 8.79289C7.01957 8.60536 6.76522 8.5 6.5 8.5ZM6.5 12.5H3.5V9.5H6.5V12.5ZM12.5 2.5H9.5C9.23478 2.5 8.98043 2.60536 8.79289 2.79289C8.60536 2.98043 8.5 3.23478 8.5 3.5V6.5C8.5 6.76522 8.60536 7.01957 8.79289 7.20711C8.98043 7.39464 9.23478 7.5 9.5 7.5H12.5C12.7652 7.5 13.0196 7.39464 13.2071 7.20711C13.3946 7.01957 13.5 6.76522 13.5 6.5V3.5C13.5 3.23478 13.3946 2.98043 13.2071 2.79289C13.0196 2.60536 12.7652 2.5 12.5 2.5ZM12.5 6.5H9.5V3.5H12.5V6.5ZM8.5 11V9C8.5 8.86739 8.55268 8.74021 8.64645 8.64645C8.74021 8.55268 8.86739 8.5 9 8.5C9.13261 8.5 9.25979 8.55268 9.35355 8.64645C9.44732 8.74021 9.5 8.86739 9.5 9V11C9.5 11.1326 9.44732 11.2598 9.35355 11.3536C9.25979 11.4473 9.13261 11.5 9 11.5C8.86739 11.5 8.74021 11.4473 8.64645 11.3536C8.55268 11.2598 8.5 11.1326 8.5 11ZM13.5 10C13.5 10.1326 13.4473 10.2598 13.3536 10.3536C13.2598 10.4473 13.1326 10.5 13 10.5H11.5V13C11.5 13.1326 11.4473 13.2598 11.3536 13.3536C11.2598 13.4473 11.1326 13.5 11 13.5H9C8.86739 13.5 8.74021 13.4473 8.64645 13.3536C8.55268 13.2598 8.5 13.1326 8.5 13C8.5 12.8674 8.55268 12.7402 8.64645 12.6464C8.74021 12.5527 8.86739 12.5 9 12.5H10.5V9C10.5 8.86739 10.5527 8.74021 10.6464 8.64645C10.7402 8.55268 10.8674 8.5 11 8.5C11.1326 8.5 11.2598 8.55268 11.3536 8.64645C11.4473 8.74021 11.5 8.86739 11.5 9V9.5H13C13.1326 9.5 13.2598 9.55268 13.3536 9.64645C13.4473 9.74021 13.5 9.86739 13.5 10ZM13.5 12V13C13.5 13.1326 13.4473 13.2598 13.3536 13.3536C13.2598 13.4473 13.1326 13.5 13 13.5C12.8674 13.5 12.7402 13.4473 12.6464 13.3536C12.5527 13.2598 12.5 13.1326 12.5 13V12C12.5 11.8674 12.5527 11.7402 12.6464 11.6464C12.7402 11.5527 12.8674 11.5 13 11.5C13.1326 11.5 13.2598 11.5527 13.3536 11.6464C13.4473 11.7402 13.5 11.8674 13.5 12Z" fill="#4D4D57"/>
</svg>
