<svg width="16" height="16" viewBox="0 0 16 16" fill="none" xmlns="http://www.w3.org/2000/svg">
<path opacity="0.13" d="M14.5 8.5V12.5C14.5 12.6326 14.4473 12.7598 14.3536 12.8536C14.2598 12.9473 14.1326 13 14 13H2C1.86739 13 1.74021 12.9473 1.64645 12.8536C1.55268 12.7598 1.5 12.6326 1.5 12.5V8.5C1.5 8.36739 1.55268 8.24021 1.64645 8.14645C1.74021 8.05268 1.86739 8 2 8H14C14.1326 8 14.2598 8.05268 14.3536 8.14645C14.4473 8.24021 14.5 8.36739 14.5 8.5Z" fill="#4D4D57"/>
<path d="M15 8.5V12.5C15 12.7652 14.8946 13.0196 14.7071 13.2071C14.5196 13.3946 14.2652 13.5 14 13.5H2C1.73478 13.5 1.48043 13.3946 1.29289 13.2071C1.10536 13.0196 1 12.7652 1 12.5V8.5C1 8.23478 1.10536 7.98043 1.29289 7.79289C1.48043 7.60535 1.73478 7.5 2 7.5H5C5.13261 7.5 5.25979 7.55268 5.35355 7.64644C5.44732 7.74021 5.5 7.86739 5.5 8C5.5 8.13261 5.44732 8.25978 5.35355 8.35355C5.25979 8.44732 5.13261 8.5 5 8.5H2V12.5H14V8.5H11C10.8674 8.5 10.7402 8.44732 10.6464 8.35355C10.5527 8.25978 10.5 8.13261 10.5 8C10.5 7.86739 10.5527 7.74021 10.6464 7.64644C10.7402 7.55268 10.8674 7.5 11 7.5H14C14.2652 7.5 14.5196 7.60535 14.7071 7.79289C14.8946 7.98043 15 8.23478 15 8.5ZM5.35375 4.85375L7.5 2.70687V8C7.5 8.13261 7.55268 8.25978 7.64645 8.35355C7.74021 8.44732 7.86739 8.5 8 8.5C8.13261 8.5 8.25979 8.44732 8.35355 8.35355C8.44732 8.25978 8.5 8.13261 8.5 8V2.70687L10.6462 4.85375C10.7401 4.94757 10.8673 5.00027 11 5.00027C11.1327 5.00027 11.2599 4.94757 11.3538 4.85375C11.4476 4.75993 11.5003 4.63268 11.5003 4.5C11.5003 4.36731 11.4476 4.24007 11.3538 4.14625L8.35375 1.14625C8.30731 1.09976 8.25217 1.06288 8.19147 1.03772C8.13077 1.01255 8.06571 0.999603 8 0.999603C7.93429 0.999603 7.86923 1.01255 7.80853 1.03772C7.74783 1.06288 7.69269 1.09976 7.64625 1.14625L4.64625 4.14625C4.55243 4.24007 4.49972 4.36731 4.49972 4.5C4.49972 4.63268 4.55243 4.75993 4.64625 4.85375C4.74007 4.94757 4.86732 5.00027 5 5.00027C5.13268 5.00027 5.25993 4.94757 5.35375 4.85375ZM12.5 10.5C12.5 10.3517 12.456 10.2067 12.3736 10.0833C12.2912 9.95998 12.1741 9.86385 12.037 9.80709C11.9 9.75032 11.7492 9.73547 11.6037 9.76441C11.4582 9.79335 11.3246 9.86478 11.2197 9.96967C11.1148 10.0746 11.0434 10.2082 11.0144 10.3537C10.9855 10.4992 11.0003 10.65 11.0571 10.787C11.1139 10.9241 11.21 11.0412 11.3333 11.1236C11.4567 11.206 11.6017 11.25 11.75 11.25C11.9489 11.25 12.1397 11.171 12.2803 11.0303C12.421 10.8897 12.5 10.6989 12.5 10.5Z" fill="#4D4D57"/>
</svg>
