<svg width="16" height="16" viewBox="0 0 16 16" fill="none" xmlns="http://www.w3.org/2000/svg">
<path opacity="0.13" d="M14 5.72188V10.2781C14.0001 10.3438 13.9872 10.4089 13.9621 10.4696C13.937 10.5302 13.9002 10.5854 13.8538 10.6319L10.6319 13.8538C10.5854 13.9002 10.5302 13.937 10.4696 13.9621C10.4089 13.9872 10.3438 14.0001 10.2781 14H5.72188C5.6562 14.0001 5.59115 13.9872 5.53045 13.9621C5.46975 13.937 5.41459 13.9002 5.36813 13.8538L2.14625 10.6319C2.09983 10.5854 2.06303 10.5302 2.03793 10.4696C2.01284 10.4089 1.99995 10.3438 2 10.2781V5.72188C1.99995 5.6562 2.01284 5.59115 2.03793 5.53045C2.06303 5.46975 2.09983 5.41459 2.14625 5.36813L5.36813 2.14625C5.41459 2.09983 5.46975 2.06303 5.53045 2.03793C5.59115 2.01284 5.6562 1.99995 5.72188 2H10.2781C10.3438 1.99995 10.4089 2.01284 10.4696 2.03793C10.5302 2.06303 10.5854 2.09983 10.6319 2.14625L13.8538 5.36813C13.9002 5.41459 13.937 5.46975 13.9621 5.53045C13.9872 5.59115 14.0001 5.6562 14 5.72188Z" fill="#4D4D57"/>
<path d="M7.50001 8.5V5C7.50001 4.86739 7.55268 4.74021 7.64645 4.64644C7.74022 4.55268 7.8674 4.5 8.00001 4.5C8.13261 4.5 8.25979 4.55268 8.35356 4.64644C8.44733 4.74021 8.50001 4.86739 8.50001 5V8.5C8.50001 8.63261 8.44733 8.75978 8.35356 8.85355C8.25979 8.94732 8.13261 9 8.00001 9C7.8674 9 7.74022 8.94732 7.64645 8.85355C7.55268 8.75978 7.50001 8.63261 7.50001 8.5ZM14.5 5.72187V10.2781C14.5004 10.4095 14.4747 10.5396 14.4244 10.661C14.3741 10.7823 14.3001 10.8925 14.2069 10.985L10.985 14.2069C10.8925 14.3001 10.7823 14.3741 10.661 14.4244C10.5396 14.4747 10.4095 14.5004 10.2781 14.5H5.72188C5.59051 14.5004 5.46037 14.4747 5.33902 14.4244C5.21766 14.3741 5.10753 14.3001 5.015 14.2069L1.79313 10.985C1.69987 10.8925 1.62593 10.7823 1.5756 10.661C1.52528 10.5396 1.49959 10.4095 1.50001 10.2781V5.72187C1.49959 5.5905 1.52528 5.46036 1.5756 5.33901C1.62593 5.21766 1.69987 5.10752 1.79313 5.015L5.015 1.79312C5.10753 1.69986 5.21766 1.62592 5.33902 1.5756C5.46037 1.52528 5.59051 1.49958 5.72188 1.5H10.2781C10.4095 1.49958 10.5396 1.52528 10.661 1.5756C10.7823 1.62592 10.8925 1.69986 10.985 1.79312L14.2069 5.015C14.3001 5.10752 14.3741 5.21766 14.4244 5.33901C14.4747 5.46036 14.5004 5.5905 14.5 5.72187ZM13.5 5.72187L10.2781 2.5H5.72188L2.50001 5.72187V10.2781L5.72188 13.5H10.2781L13.5 10.2781V5.72187ZM8.00001 10C7.85167 10 7.70666 10.044 7.58333 10.1264C7.45999 10.2088 7.36386 10.3259 7.3071 10.463C7.25033 10.6 7.23548 10.7508 7.26442 10.8963C7.29335 11.0418 7.36479 11.1754 7.46968 11.2803C7.57456 11.3852 7.7082 11.4566 7.85369 11.4856C7.99917 11.5145 8.14997 11.4997 8.28702 11.4429C8.42406 11.3861 8.5412 11.29 8.62361 11.1667C8.70602 11.0433 8.75001 10.8983 8.75001 10.75C8.75001 10.5511 8.67099 10.3603 8.53033 10.2197C8.38968 10.079 8.19892 10 8.00001 10Z" fill="#4D4D57"/>
</svg>
